<?xml version="1.0" encoding="UTF-8"?>
<svg id="Camada_2" data-name="Camada 2" xmlns="http://www.w3.org/2000/svg" viewBox="0 0 24 24">
  <defs>
    <style>
      .cls-1 {
        fill: #fff;
      }

      .cls-1, .cls-2 {
        stroke-width: 0px;
      }

      .cls-2 {
        fill: #e74011;
      }
    </style>
  </defs>
  <g id="Camada_1-2" data-name="Camada 1">
    <g>
      <path class="cls-2" d="M18.5,24H5.5c-3.1,0-5.5-2.5-5.5-5.5V5.5C0,2.4,2.5,0,5.5,0h13c3.1,0,5.5,2.5,5.5,5.5v12.9c0,3.1-2.4,5.6-5.5,5.6Z"/>
      <path class="cls-1" d="M16.5,6.7c-.1-.2-.2-.3-.4-.3s-.4.1-.5.2c-.9,1.1-1.5,1.4-4.6,2-2.1.4-3.6,2.1-3.5,4.2,0,.5.1.9.2,1.4-.8.7-1.3,1.7-1.3,2.9,0,.3.2.5.5.5s.5-.2.5-.5c0-.8.3-1.4.7-1.9.8,1.1,2.1,1.9,3.5,1.9h0c3.2,0,5.9-2.7,5.9-5.9.1-2.1-.4-3.3-1-4.5ZM11.8,16h0c-1.1,0-2.1-.6-2.7-1.4.2-.1.4-.2.7-.2,1.3-.3,2.8-1.1,3.4-1.7.2-.2.2-.5,0-.8-.2-.2-.5-.2-.8,0-.4.4-1.7,1.2-2.9,1.5-.3.1-.6.2-.9.3-.1-.3-.1-.5-.1-.8,0-1.6,1.1-2.9,2.7-3.2,2.6-.5,3.7-.8,4.7-1.8.4.9.7,1.9.7,3.3,0,2.6-2.3,4.8-4.8,4.8Z"/>
    </g>
  </g>
</svg>