<?xml version="1.0" encoding="UTF-8"?>
<svg id="Camada_2" data-name="Camada 2" xmlns="http://www.w3.org/2000/svg" viewBox="0 0 24 24">
  <defs>
    <style>
      .cls-1 {
        fill: #fff;
      }

      .cls-1, .cls-2 {
        stroke-width: 0px;
      }

      .cls-2 {
        fill: #e74011;
      }
    </style>
  </defs>
  <g id="Camada_1-2" data-name="Camada 1">
    <g>
      <path class="cls-2" d="M18.5,24H5.5c-3.1,0-5.5-2.5-5.5-5.5V5.5C0,2.4,2.4,0,5.5,0h13c3.1,0,5.5,2.5,5.5,5.5v12.9c0,3.1-2.5,5.6-5.5,5.6Z"/>
      <g>
        <path class="cls-1" d="M9.6,13.4l-2.1,2.1-.8-.8c-.3-.3-.7-.3-.9,0-.3.3-.3.7,0,.9l1.3,1.3c.1.1.3.2.5.2s.3-.1.5-.2l2.6-2.6c.3-.3.3-.7,0-.9s-.9-.2-1.1,0Z"/>
        <path class="cls-1" d="M9.6,7l-2.1,2.1-.8-.8c-.3-.3-.7-.3-.9,0-.3.3-.3.7,0,.9l1.3,1.3c.1.1.3.2.5.2s.3-.1.5-.2l2.6-2.6c.3-.3.3-.7,0-.9-.5-.2-.9-.2-1.1,0Z"/>
        <path class="cls-1" d="M12.6,8.7h5.1c.4,0,.6-.3.6-.6s-.3-.6-.6-.6h-5.1c-.4,0-.6.3-.6.6s.3.6.6.6Z"/>
        <path class="cls-1" d="M17.7,11.3h-5.1c-.4,0-.6.3-.6.6,0,.4.3.6.6.6h5.1c.4,0,.6-.3.6-.6.1-.3-.2-.6-.6-.6Z"/>
        <path class="cls-1" d="M17.7,15.2h-5.1c-.4,0-.6.3-.6.6s.3.6.6.6h5.1c.4,0,.6-.3.6-.6s-.2-.6-.6-.6Z"/>
      </g>
    </g>
  </g>
</svg>