<?xml version="1.0" encoding="UTF-8"?>
<svg id="Camada_2" data-name="Camada 2" xmlns="http://www.w3.org/2000/svg" viewBox="0 0 24 24">
  <defs>
    <style>
      .cls-1 {
        fill: #fff;
      }

      .cls-1, .cls-2 {
        stroke-width: 0px;
      }

      .cls-2 {
        fill: #e74011;
      }
    </style>
  </defs>
  <g id="Camada_1-2" data-name="Camada 1">
    <g>
      <path class="cls-2" d="M18.5,24H5.5c-3.1,0-5.5-2.5-5.5-5.5V5.5C0,2.4,2.5,0,5.5,0h13c3.1,0,5.5,2.5,5.5,5.5v12.9c.1,3.1-2.4,5.6-5.5,5.6Z"/>
      <path class="cls-1" d="M16.1,7.2c-.2-.1-.4,0-.5.1,0,0-.4.4-1.6.4-.6,0-1.2-.2-1.8-.4-.6-.3-1.3-.5-2.1-.5-1.6,0-2.2.5-2.3.6s-.1.2-.1.3v9.2c0,.3.2.5.5.5s.5-.2.5-.5v-3.1c.2-.1.7-.3,1.5-.3.6,0,1.2.2,1.8.4.6.3,1.3.5,2.1.5,1.6,0,2.2-.5,2.3-.6s.1-.2.1-.3v-5.8c-.1-.2-.2-.4-.4-.5ZM15.4,13.2c-.2.1-.7.3-1.5.3-.6,0-1.2-.2-1.8-.4-.6-.3-1.3-.5-2.1-.5-.6,0-1.1.1-1.5.2v-4.8c.2-.1.7-.3,1.5-.3.6,0,1.2.2,1.8.4.6.3,1.3.5,2.1.5.6,0,1.1-.1,1.5-.2v4.8Z"/>
    </g>
  </g>
</svg>