<?xml version="1.0" encoding="UTF-8"?>
<svg id="Camada_2" data-name="Camada 2" xmlns="http://www.w3.org/2000/svg" viewBox="0 0 293.81 329.85">
  <defs>
    <style>
      .cls-1, .cls-2 {
        fill: #504f4f;
      }

      .cls-1, .cls-2, .cls-3 {
        stroke-width: 0px;
      }

      .cls-1, .cls-3 {
        fill-rule: evenodd;
      }

      .cls-3 {
        fill: #e74011;
      }
    </style>
  </defs>
  <g id="Camada_1-2" data-name="Camada 1">
    <g>
      <path class="cls-3" d="M208.12,194.82c-41.51,0-83.02-.01-124.53-.02,2.64,3.94,5.29,7.87,7.93,11.81,1.94,2.52,4.24,3.99,7.02,4.08h93.14c3.28,0,5.8-.07,8.06-2.94,2.79-4.31,5.59-8.62,8.38-12.93M275.81,177.79h-56.03l-9.63,14.97h56.03l9.63-14.97ZM16.83,177.79h56.03l9.63,14.97H26.46l-9.63-14.97ZM192.82,34.57l63.6,109.58h23.52L203.83,14.91l-11.01,19.66ZM173.82,68.92l43.64,75.11h21.75l-54.69-94.15-10.69,19.04ZM172.7,161l-52.01.16,25.43-44.35,26.57,44.18ZM126.43,81.73l-44.65,79.23h21.67l34.58-59.82-11.6-19.41ZM107.51,48.78l-54.6,94.36h22.01l42.88-76.62-10.29-17.74ZM13.81,143.67h21.97s63.1-109.96,63.1-109.96l-10.93-18.58L13.81,143.67ZM15.81,157.8c17.35-.04,34.71-.08,52.06-.13-.01,12.04,5.59,17.86,16.14,18.21h125.08c9.69-1,14.65-6.72,14.64-17.42h51.7c22.76,0,17.87-20.97,9.86-34.49-22.2-37.48-44.39-74.96-66.59-112.43-7.5-12.66-22.15-12.99-29.54.08-7.89,13.94-15.77,27.87-23.66,41.81-3.85-6.68-7.69-13.37-11.54-20.05,6.27-10.98,12.54-21.96,18.81-32.94h-16.95c-3.35,5.83-6.7,11.65-10.05,17.48-3.72-5.97-7.43-11.94-11.15-17.91h-16.59c31.04,53.67,62.09,107.33,93.13,161h-22.44c-28.94-50.42-57.89-100.83-86.83-151.25-7.4-12.89-21.27-11.55-28.4.73C50.66,49.86,27.81,89.23,4.96,128.61c-7.28,12.56-8.22,29.23,10.86,29.19Z"/>
      <g>
        <path class="cls-1" d="M223.87,256.44h12.58v46.32h-12.58v-46.32ZM261.81,285.53l5.29-13.33,5.29,13.33h-10.59ZM241.94,302.76h13.03l3.26-8.21h17.74l3.26,8.21h13.03l-18.72-45.39h-12.88l-18.72,45.39ZM188.99,285.53l5.29-13.33,5.29,13.33h-10.59ZM169.12,302.76h13.03l3.26-8.21h17.74l3.26,8.21h13.03l-18.72-45.39h-12.88l-18.72,45.39ZM115.95,257.07h13.17s11.37,17.52,11.37,17.52l11.14-17.89h12.56v45.75h-12.44v-25.61l-11.23,17.08-12.43-17.53v26.36h-12.13v-45.69ZM72.28,256.44h36.91v10.7h-24.33v7.13h21.81v9.99h-21.81v7.8h24.33v10.7h-36.91v-46.32ZM51.62,256.44h12.58v46.32h-12.58v-46.32ZM0,302.76h13.07v-24.47l19.5,24.47h10.98v-46.32h-12.58v24.47l-19.5-24.47H0v46.32Z"/>
        <path class="cls-2" d="M285.42,326.13v-2.34c.5.36,1.04.62,1.62.8.58.18,1.17.27,1.77.27.35,0,.66-.03.91-.08.26-.05.48-.13.65-.22.18-.09.3-.21.39-.33.09-.13.13-.27.13-.42,0-.2-.07-.39-.21-.55-.14-.16-.33-.31-.56-.45-.24-.14-.52-.27-.85-.39-.33-.13-.68-.26-1.05-.39-.96-.34-1.68-.76-2.15-1.25-.47-.49-.71-1.09-.71-1.78,0-.55.13-1.02.38-1.41.26-.39.61-.72,1.05-.97.45-.25.96-.44,1.54-.56.58-.12,1.2-.18,1.86-.18s1.21.03,1.71.1c.49.06.95.17,1.37.3v2.19c-.21-.12-.43-.23-.67-.32-.24-.09-.5-.17-.75-.23-.26-.06-.51-.1-.77-.13-.25-.03-.5-.04-.72-.04-.32,0-.6.03-.86.07-.26.05-.47.12-.65.22-.18.09-.31.2-.41.33-.1.13-.14.27-.14.43,0,.18.05.33.16.47.11.14.26.27.47.4.2.12.44.24.73.36.28.12.61.24.97.37.49.17.93.36,1.32.56.39.2.73.42,1.01.67.28.25.5.53.64.85.15.32.22.69.22,1.11,0,.59-.13,1.08-.39,1.47-.26.4-.61.72-1.06.96-.45.25-.96.42-1.56.53-.6.11-1.22.16-1.88.16s-1.32-.05-1.93-.14c-.61-.1-1.14-.24-1.59-.44M275.12,317.9c-.97,0-1.75.31-2.32.93-.57.62-.86,1.44-.86,2.47s.29,1.86.86,2.47c.57.6,1.32.91,2.25.91s1.71-.29,2.28-.88c.56-.59.84-1.4.84-2.45s-.27-1.93-.81-2.54c-.54-.6-1.29-.91-2.23-.91ZM275,326.71c-1.76,0-3.2-.49-4.31-1.46-1.11-.98-1.66-2.25-1.66-3.82,0-1.66.56-3,1.69-4.02,1.13-1.02,2.62-1.54,4.48-1.54,1.76,0,3.18.49,4.26,1.47,1.08.98,1.63,2.27,1.63,3.88s-.56,2.98-1.69,3.99c-1.12,1.01-2.59,1.51-4.4,1.51ZM265.95,317.96h-3.51v8.56h-2.78v-8.56h-3.49v-1.92h9.79v1.92ZM251.63,326.53h-2.8l-5.08-6.59c-.3-.38-.5-.67-.62-.87h-.03c.04.37.07.94.07,1.69v5.76h-2.62v-10.48h2.99l4.89,6.38c.22.29.43.57.62.86h.04c-.05-.24-.07-.72-.07-1.44v-5.8h2.62v10.48ZM235.73,326.53h-7.39v-10.48h7.1v1.92h-4.33v2.33h4.03v1.91h-4.03v2.4h4.61v1.92ZM222.7,326.53h-2.74v-6.27c0-.68.04-1.43.1-2.24h-.07c-.14.64-.27,1.11-.39,1.39l-2.88,7.13h-2.27l-2.94-7.06c-.08-.19-.21-.68-.39-1.46h-.08c.07,1.03.11,1.94.11,2.72v5.8h-2.5v-10.48h4.06l2.52,6.21c.2.5.35,1,.44,1.5h.05c.15-.58.32-1.09.49-1.51l2.51-6.2h3.96v10.48ZM199.75,322.38l-1.32-3.52c-.1-.26-.17-.58-.21-.94h-.07c-.03.31-.1.61-.21.91l-1.34,3.55h3.15ZM204.28,326.53h-3.02l-.88-2.33h-4.38l-.87,2.33h-3.01l4.48-10.48h3.29l4.38,10.48ZM183.62,317.85v3.27h1.09c1.48,0,2.22-.55,2.22-1.65s-.74-1.62-2.22-1.62h-1.09ZM183.62,322.92v3.61h-2.78v-10.48h4.35c3.1,0,4.65,1.11,4.65,3.34,0,1.05-.45,1.9-1.34,2.56-.89.65-2.08.98-3.57.98h-1.32ZM175.2,326.53h-2.78v-10.48h2.78v10.48ZM166.89,321.99c0,3.15-1.72,4.72-5.17,4.72s-5.01-1.54-5.01-4.61v-6.05h2.78v6.08c0,1.7.78,2.55,2.34,2.55s2.29-.82,2.29-2.46v-6.17h2.77v5.94ZM146,317.9c-.97,0-1.74.31-2.32.94-.57.62-.86,1.44-.86,2.46s.29,1.86.86,2.47c.57.6,1.32.91,2.25.91s1.71-.29,2.28-.88c.56-.59.84-1.41.84-2.45s-.27-1.93-.81-2.54c-.54-.6-1.28-.91-2.23-.91ZM145.88,326.71c-1.76,0-3.2-.49-4.31-1.46-1.11-.98-1.66-2.26-1.66-3.82,0-1.65.56-2.99,1.69-4.02,1.12-1.02,2.62-1.54,4.48-1.54,1.76,0,3.18.49,4.26,1.47,1.09.98,1.63,2.27,1.63,3.88s-.56,2.97-1.69,3.99c-.04.03-.08.07-.11.1-.04.03-.07.06-.11.09l3.12,2.55h-3.88l-1.63-1.41c-.54.12-1.13.18-1.78.18ZM135.85,326.53h-7.39v-10.48h7.1v1.92h-4.33v2.33h4.03v1.91h-4.03v2.4h4.61v1.92ZM118.79,326.53h-7.39v-10.48h7.1v1.92h-4.33v2.33h4.03v1.91h-4.03v2.4h4.61v1.92ZM93.28,326.13v-2.34c.5.36,1.04.62,1.62.8.58.18,1.17.27,1.77.27.35,0,.66-.03.91-.08.26-.05.48-.13.65-.22.18-.09.3-.21.39-.33.09-.13.13-.27.13-.42,0-.2-.07-.39-.21-.55-.14-.16-.33-.31-.56-.45-.24-.14-.52-.27-.85-.39-.33-.13-.68-.26-1.05-.39-.96-.34-1.68-.76-2.15-1.25-.47-.49-.71-1.09-.71-1.78,0-.55.13-1.02.38-1.41.26-.39.61-.72,1.05-.97.45-.25.96-.44,1.54-.56.58-.12,1.2-.18,1.86-.18s1.21.03,1.71.1c.49.06.95.17,1.37.3v2.19c-.21-.12-.43-.23-.67-.32-.24-.09-.5-.17-.75-.23-.26-.06-.51-.1-.77-.13-.25-.03-.5-.04-.72-.04-.32,0-.6.03-.86.07-.26.05-.47.12-.65.22-.18.09-.31.2-.41.33-.1.13-.14.27-.14.43,0,.18.05.33.16.47.11.14.26.27.47.4.2.12.44.24.73.36.28.12.61.24.97.37.49.17.93.36,1.32.56.39.2.73.42,1.01.67.28.25.5.53.64.85.15.32.22.69.22,1.11,0,.59-.13,1.08-.39,1.47-.26.4-.61.72-1.06.96-.45.25-.96.42-1.56.53-.59.11-1.22.16-1.88.16s-1.32-.05-1.93-.14c-.61-.1-1.14-.24-1.59-.44ZM82.99,317.9c-.97,0-1.75.31-2.32.93-.57.62-.86,1.44-.86,2.47s.29,1.86.86,2.47c.57.6,1.32.91,2.25.91s1.71-.29,2.28-.88c.56-.59.84-1.4.84-2.45s-.27-1.93-.81-2.54c-.55-.6-1.29-.91-2.23-.91ZM82.87,326.71c-1.76,0-3.2-.49-4.31-1.46-1.11-.98-1.66-2.25-1.66-3.82,0-1.66.56-3,1.69-4.02,1.13-1.02,2.62-1.54,4.48-1.54,1.76,0,3.18.49,4.26,1.47,1.08.98,1.63,2.27,1.63,3.88s-.56,2.98-1.69,3.99c-1.12,1.01-2.59,1.51-4.4,1.51ZM68.06,329.82v-1.01c.2.03.41.05.62.05.71,0,1.06-.18,1.06-.53,0-.32-.32-.48-.95-.48-.08,0-.18,0-.32.01v-1.33h1.48v.6c1.07.04,1.61.44,1.61,1.22,0,1.01-.91,1.51-2.73,1.51-.26,0-.52,0-.76-.03ZM73.06,326.16c-.9.37-2.07.55-3.52.55-1.89,0-3.37-.47-4.45-1.42-1.08-.95-1.62-2.21-1.62-3.78,0-1.68.61-3.04,1.82-4.08,1.22-1.04,2.8-1.56,4.74-1.56,1.2,0,2.22.13,3.04.39v2.27c-.82-.42-1.76-.63-2.82-.63-1.15,0-2.09.31-2.8.93-.71.62-1.06,1.46-1.06,2.52s.33,1.82,1.01,2.42c.67.6,1.57.9,2.71.9s2.07-.22,2.97-.67v2.16ZM58.58,326.53h-2.78v-10.48h2.78v10.48ZM51.48,316.04l-4.24,10.48h-3.14l-4.19-10.48h2.99l2.57,7.3c.14.39.22.74.25,1.05h.05c.04-.33.13-.69.27-1.08l2.55-7.27h2.9ZM29.68,317.81v2.92h1.2c.6,0,1.07-.15,1.43-.44.37-.3.55-.67.55-1.1,0-.92-.64-1.38-1.93-1.38h-1.25ZM37.23,326.53h-3.19l-1.91-2.7c-.14-.2-.28-.39-.41-.55-.13-.16-.26-.3-.4-.41-.13-.11-.28-.2-.42-.26-.15-.06-.3-.09-.47-.09h-.75v4.01h-2.78v-10.48h4.4c2.99,0,4.48.95,4.48,2.85,0,.37-.07.7-.2,1.01-.13.31-.32.59-.56.84-.24.25-.53.46-.87.64-.34.18-.72.32-1.14.42v.03c.18.05.36.13.53.24.17.11.34.24.5.38.16.15.31.3.46.47.15.17.28.33.4.49l2.33,3.1ZM22.08,326.53h-7.39v-10.48h7.1v1.92h-4.33v2.33h4.03v1.91h-4.03v2.4h4.61v1.92ZM1.42,326.13v-2.34c.5.36,1.04.62,1.62.8.58.18,1.17.27,1.77.27.35,0,.66-.03.91-.08.26-.05.48-.13.65-.22.18-.09.3-.21.39-.33.09-.13.13-.27.13-.42,0-.2-.07-.39-.21-.55-.14-.16-.33-.31-.56-.45-.24-.14-.52-.27-.85-.39-.33-.13-.68-.26-1.05-.39-.96-.34-1.68-.76-2.15-1.25-.47-.49-.71-1.09-.71-1.78,0-.55.13-1.02.38-1.41.26-.39.61-.72,1.05-.97.45-.25.96-.44,1.54-.56.58-.12,1.2-.18,1.86-.18s1.21.03,1.71.1c.49.06.95.17,1.37.3v2.19c-.21-.12-.43-.23-.67-.32-.24-.09-.5-.17-.75-.23-.26-.06-.51-.1-.77-.13-.26-.03-.5-.04-.72-.04-.32,0-.6.03-.86.07-.26.05-.47.12-.65.22-.18.09-.31.2-.41.33-.1.13-.14.27-.14.43,0,.18.05.33.16.47.11.14.26.27.47.4.2.12.44.24.73.36.28.12.61.24.97.37.49.17.93.36,1.32.56.39.2.73.42,1.01.67.28.25.5.53.64.85.15.32.22.69.22,1.11,0,.59-.13,1.08-.39,1.47-.26.4-.61.72-1.06.96-.45.25-.96.42-1.56.53-.59.11-1.22.16-1.88.16s-1.32-.05-1.93-.14c-.61-.1-1.14-.24-1.59-.44Z"/>
      </g>
    </g>
  </g>
</svg>