<?xml version="1.0" encoding="UTF-8"?>
<svg id="Camada_2" data-name="Camada 2" xmlns="http://www.w3.org/2000/svg" viewBox="0 0 24 24">
  <defs>
    <style>
      .cls-1 {
        fill: #fff;
      }

      .cls-1, .cls-2 {
        stroke-width: 0px;
      }

      .cls-2 {
        fill: #e74011;
      }
    </style>
  </defs>
  <g id="Camada_1-2" data-name="Camada 1">
    <g>
      <path class="cls-2" d="M18.5,24H5.5c-3.1,0-5.5-2.5-5.5-5.5V5.5C0,2.5,2.4,0,5.5,0h13c3.1,0,5.5,2.5,5.5,5.5v12.9c0,3.1-2.5,5.6-5.5,5.6Z"/>
      <path class="cls-1" d="M16.8,7c-.2-.1-.3-.1-.5,0l-2.8,1.4-2.8-1.4h0c-.1,0-.1-.1-.2-.1s-.1,0-.2.1h0l-3.1,1.5c-.2.1-.3.3-.3.5v7.6c0,.2.1.3.2.4s.2.1.3.1.2,0,.2-.1l2.8-1.4,2.8,1.4h0c.1,0,.1.1.2.1s.1,0,.2-.1h0l3.1-1.5c.2-.1.3-.3.3-.5v-7.6c.1-.2,0-.3-.2-.4ZM11,8.2l2,1v6.5l-2-1v-6.5ZM7.9,9.3l2-1v6.5l-2,1v-6.5ZM16.1,14.8l-2,1v-6.5l2-1v6.5Z"/>
    </g>
  </g>
</svg>