<?xml version="1.0" encoding="UTF-8"?>
<svg id="Camada_2" data-name="Camada 2" xmlns="http://www.w3.org/2000/svg" viewBox="0 0 1026.67 199.7">
  <defs>
    <style>
      .cls-1, .cls-2 {
        fill-rule: evenodd;
      }

      .cls-1, .cls-2, .cls-3 {
        stroke-width: 0px;
      }

      .cls-1, .cls-3 {
        fill: #4a4a49;
      }

      .cls-2 {
        fill: #e74011;
      }
    </style>
  </defs>
  <g id="Camada_1-2" data-name="Camada 1">
    <path class="cls-2" d="M197.13,184.66c-39.34,0-78.69-.01-118.04-.02,2.51,3.73,5.01,7.46,7.52,11.2,1.84,2.39,4.02,3.79,6.66,3.87h88.28c3.11,0,5.5-.07,7.64-2.79,2.65-4.09,5.29-8.17,7.94-12.26M261.29,168.52h-53.1l-9.13,14.19h53.1l9.13-14.19ZM15.82,168.52h53.1l9.13,14.19H24.95l-9.13-14.19ZM182.63,32.77l60.28,103.86h22.29L193.07,14.13l-10.43,18.63ZM164.62,65.32l41.36,71.19h20.61l-51.84-89.23-10.14,18.05ZM163.55,152.6l-49.29.15,24.11-42.03,25.19,41.88ZM119.7,77.46l-42.32,75.09h20.54l32.78-56.7-11-18.4ZM101.77,46.23l-51.75,89.43h20.86l40.64-72.62-9.75-16.82ZM12.96,136.17h20.83S93.59,31.95,93.59,31.95l-10.36-17.61L12.96,136.17ZM14.86,149.56c16.45-.04,32.9-.08,49.34-.12-.01,11.41,5.3,16.93,15.3,17.26h118.55c9.18-.95,13.89-6.37,13.88-16.51h49c21.57,0,16.94-19.87,9.34-32.69-21.04-35.52-42.08-71.04-63.11-106.57-7.11-12-20.99-12.31-28,.08-7.48,13.21-14.95,26.42-22.43,39.63-3.65-6.34-7.29-12.67-10.94-19.01,5.94-10.41,11.89-20.82,17.83-31.22h-16.06c-3.18,5.52-6.35,11.04-9.53,16.56-3.52-5.66-7.04-11.32-10.57-16.97h-15.72c29.42,50.87,58.85,101.73,88.27,152.6h-21.27c-27.43-47.78-54.87-95.57-82.3-143.35-7.01-12.22-20.16-10.94-26.91.69C47.88,47.25,26.22,84.58,4.57,121.9c-6.9,11.9-7.79,27.71,10.29,27.67Z"/>
    <g>
      <path class="cls-1" d="M865.74,19.89h28.96v106.58h-28.96V19.89ZM953.05,86.83l12.18-30.68,12.18,30.68h-24.36ZM907.32,126.47h29.99l7.51-18.9h40.83l7.51,18.9h29.99l-43.08-104.43h-29.64l-43.08,104.43ZM785.48,86.83l12.18-30.68,12.18,30.68h-24.36ZM739.76,126.47h29.99l7.51-18.9h40.83l7.51,18.9h29.99l-43.08-104.43h-29.64l-43.08,104.43ZM617.4,21.34l30.31-.02,26.17,40.34,25.62-41.16h28.89v105.27h-28.62v-58.94l-25.85,39.29-28.61-40.33v60.66h-27.92V21.34ZM516.93,19.89h84.94v24.62h-55.98v16.41h50.18v22.98h-50.18v17.96h55.98v24.62h-84.94V19.89ZM469.4,19.89h28.96v106.58h-28.96V19.89ZM350.61,126.47h30.07v-56.3l44.86,56.3h25.27V19.89h-28.96v56.3l-44.86-56.3h-26.39v106.58Z"/>
      <path class="cls-3" d="M1007.35,180.24v-5.39c1.15.82,2.39,1.44,3.74,1.84,1.34.41,2.7.61,4.07.61.81,0,1.51-.06,2.1-.18.6-.13,1.1-.29,1.5-.52.4-.22.7-.48.9-.77.2-.3.3-.62.3-.97,0-.47-.15-.89-.47-1.26-.32-.37-.75-.72-1.3-1.03-.55-.32-1.19-.62-1.95-.91-.75-.29-1.56-.59-2.43-.9-2.21-.78-3.86-1.74-4.95-2.88-1.09-1.13-1.63-2.5-1.63-4.1,0-1.26.29-2.34.88-3.24.59-.91,1.4-1.65,2.42-2.23,1.02-.58,2.21-1.01,3.55-1.29,1.34-.28,2.76-.41,4.27-.41s2.79.08,3.93.23c1.13.15,2.18.39,3.15.7v5.03c-.48-.28-.99-.53-1.55-.74-.56-.21-1.14-.39-1.73-.53-.59-.14-1.18-.24-1.77-.31-.59-.06-1.14-.1-1.67-.1-.73,0-1.38.06-1.98.17-.59.12-1.09.29-1.5.5-.4.21-.72.47-.95.76-.22.3-.33.63-.33,1,0,.41.12.77.37,1.09.25.32.61.63,1.07.91.46.28,1.02.56,1.68.84.65.28,1.4.56,2.23.85,1.13.4,2.14.83,3.05,1.29.9.45,1.68.97,2.32,1.54.65.57,1.14,1.23,1.48,1.96.34.73.51,1.59.51,2.56,0,1.35-.3,2.48-.9,3.39-.6.91-1.41,1.65-2.44,2.22-1.03.57-2.22.98-3.58,1.22-1.37.25-2.81.37-4.32.37s-3.03-.11-4.43-.33c-1.4-.22-2.62-.56-3.65-1.01M983.67,161.31c-2.24,0-4.02.71-5.33,2.15-1.31,1.43-1.98,3.32-1.98,5.67s.66,4.28,1.98,5.67c1.31,1.39,3.04,2.08,5.17,2.08s3.95-.68,5.24-2.03c1.29-1.36,1.94-3.23,1.94-5.63s-.63-4.45-1.87-5.84c-1.25-1.39-2.97-2.08-5.14-2.08ZM983.39,181.58c-4.06,0-7.36-1.13-9.92-3.37-2.56-2.25-3.83-5.18-3.83-8.79,0-3.81,1.29-6.9,3.89-9.25,2.6-2.35,6.03-3.54,10.31-3.54,4.05,0,7.32,1.13,9.81,3.38,2.5,2.26,3.74,5.23,3.74,8.92s-1.29,6.85-3.88,9.17c-2.58,2.32-5.96,3.48-10.12,3.48ZM962.55,161.46h-8.09v19.7h-6.4v-19.7h-8.04v-4.42h22.52v4.42ZM929.62,181.16h-6.44l-11.68-15.16c-.68-.88-1.16-1.55-1.42-2h-.07c.1.85.15,2.15.15,3.9v13.26h-6.03v-24.12h6.88l11.24,14.68c.51.67.98,1.32,1.42,1.97h.08c-.11-.56-.16-1.67-.16-3.31v-13.34h6.03v24.12ZM893.03,181.16h-16.99v-24.12h16.34v4.42h-9.95v5.37h9.27v4.4h-9.27v5.52h10.61v4.41ZM863.05,181.16h-6.31v-14.44c0-1.56.08-3.28.24-5.16h-.15c-.33,1.48-.63,2.54-.89,3.2l-6.64,16.4h-5.22l-6.76-16.23c-.18-.44-.48-1.56-.89-3.37h-.17c.17,2.38.26,4.46.26,6.26v13.34h-5.75v-24.12h9.35l5.79,14.3c.46,1.14.8,2.29,1,3.45h.12c.35-1.34.73-2.5,1.13-3.49l5.79-14.26h9.11v24.12ZM810.23,171.62l-3.04-8.11c-.22-.61-.38-1.33-.48-2.17h-.15c-.07.71-.23,1.41-.49,2.1l-3.08,8.18h7.25ZM820.67,181.16h-6.95l-2.02-5.37h-10.08l-2,5.37h-6.92l10.32-24.12h7.57l10.08,24.12ZM773.12,161.21v7.52h2.51c3.4,0,5.1-1.27,5.1-3.8s-1.7-3.72-5.1-3.72h-2.51ZM773.12,172.85v8.31h-6.39v-24.12h10c7.14,0,10.71,2.56,10.71,7.69,0,2.42-1.02,4.38-3.07,5.88-2.05,1.49-4.78,2.25-8.21,2.25h-3.04ZM753.74,181.16h-6.39v-24.12h6.39v24.12ZM734.63,170.71c0,7.24-3.97,10.87-11.89,10.87s-11.54-3.54-11.54-10.61v-13.93h6.4v13.99c0,3.9,1.79,5.86,5.37,5.86s5.27-1.88,5.27-5.66v-14.2h6.38v13.68ZM686.55,161.31c-2.23,0-4.01.72-5.33,2.15-1.32,1.42-1.98,3.31-1.98,5.67s.66,4.28,1.98,5.67c1.32,1.39,3.04,2.08,5.17,2.08s3.94-.67,5.24-2.02c1.29-1.37,1.94-3.24,1.94-5.63s-.63-4.44-1.87-5.84c-1.24-1.39-2.95-2.08-5.14-2.08ZM686.27,181.58c-4.06,0-7.36-1.12-9.92-3.37-2.56-2.26-3.83-5.2-3.83-8.8,0-3.8,1.29-6.89,3.89-9.25,2.58-2.35,6.02-3.54,10.31-3.54,4.05,0,7.31,1.13,9.8,3.38,2.5,2.25,3.76,5.22,3.76,8.92s-1.29,6.83-3.89,9.17c-.09.07-.18.16-.26.22-.08.07-.17.14-.26.21l7.17,5.87h-8.93l-3.76-3.24c-1.23.28-2.6.42-4.09.42ZM663.2,181.16h-16.99v-24.12h16.34v4.42h-9.95v5.37h9.27v4.4h-9.27v5.52h10.61v4.41ZM623.95,181.16h-16.99v-24.12h16.34v4.42h-9.95v5.37h9.27v4.4h-9.27v5.52h10.61v4.41ZM565.26,180.24v-5.39c1.15.82,2.39,1.44,3.74,1.84,1.34.41,2.7.61,4.07.61.81,0,1.51-.06,2.1-.18.6-.13,1.1-.29,1.5-.52.4-.22.7-.48.9-.77.2-.3.3-.62.3-.97,0-.47-.15-.89-.47-1.26-.32-.37-.75-.72-1.29-1.03-.55-.32-1.19-.62-1.95-.91-.75-.29-1.56-.59-2.43-.9-2.21-.78-3.86-1.74-4.95-2.88-1.09-1.13-1.63-2.5-1.63-4.1,0-1.26.29-2.34.88-3.24.59-.91,1.4-1.65,2.42-2.23,1.03-.58,2.21-1.01,3.55-1.29,1.34-.28,2.76-.41,4.27-.41s2.79.08,3.92.23c1.13.15,2.19.39,3.15.7v5.03c-.48-.28-.99-.53-1.55-.74-.56-.21-1.14-.39-1.73-.53-.59-.14-1.18-.24-1.77-.31-.59-.06-1.14-.1-1.67-.1-.73,0-1.38.06-1.98.17-.59.12-1.09.29-1.5.5-.4.21-.72.47-.95.76-.22.3-.33.63-.33,1,0,.41.12.77.37,1.09.25.32.61.63,1.07.91.46.28,1.02.56,1.68.84.65.28,1.4.56,2.23.85,1.13.4,2.14.83,3.05,1.29.9.45,1.68.97,2.32,1.54.65.57,1.14,1.23,1.48,1.96.34.73.51,1.59.51,2.56,0,1.35-.3,2.48-.9,3.39-.6.91-1.41,1.65-2.44,2.22-1.03.57-2.22.98-3.58,1.22-1.37.25-2.81.37-4.32.37s-3.03-.11-4.43-.33c-1.4-.22-2.62-.56-3.65-1.01ZM541.57,161.31c-2.24,0-4.02.71-5.33,2.15-1.32,1.43-1.98,3.32-1.98,5.67s.66,4.28,1.98,5.67c1.32,1.39,3.04,2.08,5.17,2.08s3.94-.68,5.24-2.03c1.29-1.36,1.94-3.23,1.94-5.63s-.63-4.45-1.87-5.84c-1.25-1.39-2.97-2.08-5.14-2.08ZM541.29,181.58c-4.06,0-7.36-1.13-9.92-3.37-2.56-2.25-3.83-5.18-3.83-8.79,0-3.81,1.29-6.9,3.89-9.25,2.6-2.35,6.03-3.54,10.31-3.54,4.05,0,7.32,1.13,9.81,3.38,2.5,2.26,3.74,5.23,3.74,8.92s-1.29,6.85-3.88,9.17c-2.58,2.32-5.96,3.48-10.12,3.48ZM507.22,188.75v-2.32c.46.07.94.1,1.42.1,1.62,0,2.43-.41,2.43-1.23,0-.74-.74-1.11-2.19-1.11-.18,0-.42.01-.74.03v-3.06h3.4v1.38c2.46.09,3.7,1.02,3.7,2.8,0,2.32-2.1,3.48-6.29,3.48-.61,0-1.19-.02-1.74-.07ZM518.71,180.31c-2.06.85-4.77,1.27-8.1,1.27-4.34,0-7.76-1.09-10.25-3.26-2.5-2.18-3.74-5.08-3.74-8.7,0-3.86,1.4-6.99,4.19-9.39,2.8-2.4,6.43-3.6,10.9-3.6,2.77,0,5.1.3,6.99.9v5.23c-1.9-.96-4.05-1.45-6.48-1.45-2.66,0-4.81.71-6.44,2.14-1.63,1.42-2.45,3.35-2.45,5.79s.77,4.19,2.31,5.58c1.54,1.38,3.61,2.08,6.22,2.08s4.77-.52,6.83-1.55v4.97ZM485.41,181.16h-6.39v-24.12h6.39v24.12ZM469.08,157.04l-9.76,24.12h-7.23l-9.64-24.12h6.88l5.91,16.79c.32.91.51,1.71.57,2.41h.11c.09-.75.3-1.58.61-2.48l5.87-16.72h6.68ZM418.89,161.11v6.71h2.77c1.37,0,2.47-.34,3.3-1.01.84-.68,1.27-1.53,1.27-2.54,0-2.11-1.48-3.16-4.45-3.16h-2.88ZM436.28,181.16h-7.33l-4.4-6.21c-.33-.47-.65-.89-.95-1.26-.3-.37-.61-.68-.92-.95-.31-.26-.63-.47-.97-.61-.34-.14-.7-.21-1.09-.21h-1.72v9.23h-6.39v-24.12h10.12c6.88,0,10.32,2.19,10.32,6.56,0,.84-.16,1.62-.46,2.33-.3.71-.73,1.36-1.28,1.93-.55.57-1.22,1.06-2,1.48-.79.42-1.66.74-2.62.98v.07c.43.11.83.29,1.23.55.4.25.78.55,1.15.88.37.34.72.7,1.06,1.09.34.38.64.76.92,1.14l5.35,7.13ZM401.41,181.16h-16.99v-24.12h16.34v4.42h-9.95v5.37h9.27v4.4h-9.27v5.52h10.61v4.41ZM353.88,180.24v-5.39c1.15.82,2.39,1.44,3.74,1.84,1.34.41,2.7.61,4.07.61.81,0,1.51-.06,2.1-.18.6-.13,1.1-.29,1.5-.52.4-.22.7-.48.9-.77.2-.3.3-.62.3-.97,0-.47-.16-.89-.47-1.26-.32-.37-.75-.72-1.3-1.03-.55-.32-1.19-.62-1.95-.91-.75-.29-1.56-.59-2.43-.9-2.21-.78-3.86-1.74-4.95-2.88-1.09-1.13-1.63-2.5-1.63-4.1,0-1.26.29-2.34.88-3.24.59-.91,1.4-1.65,2.42-2.23,1.02-.58,2.2-1.01,3.55-1.29,1.34-.28,2.77-.41,4.27-.41s2.79.08,3.92.23c1.13.15,2.19.39,3.15.7v5.03c-.48-.28-.99-.53-1.55-.74-.56-.21-1.14-.39-1.73-.53-.59-.14-1.18-.24-1.77-.31-.59-.06-1.14-.1-1.67-.1-.73,0-1.38.06-1.98.17-.59.12-1.09.29-1.5.5-.4.21-.72.47-.95.76-.22.3-.33.63-.33,1,0,.41.12.77.37,1.09.25.32.61.63,1.07.91.46.28,1.02.56,1.68.84.65.28,1.4.56,2.23.85,1.13.4,2.14.83,3.05,1.29.9.45,1.68.97,2.32,1.54.65.57,1.14,1.23,1.48,1.96.34.73.51,1.59.51,2.56,0,1.35-.3,2.48-.9,3.39-.6.91-1.41,1.65-2.44,2.22-1.02.57-2.22.98-3.58,1.22-1.37.25-2.81.37-4.32.37s-3.03-.11-4.43-.33c-1.4-.22-2.62-.56-3.65-1.01Z"/>
    </g>
  </g>
</svg>