<?xml version="1.0" encoding="UTF-8"?>
<svg id="Camada_2" data-name="Camada 2" xmlns="http://www.w3.org/2000/svg" viewBox="0 0 24 24">
  <defs>
    <style>
      .cls-1 {
        fill: #fff;
      }

      .cls-1, .cls-2 {
        stroke-width: 0px;
      }

      .cls-2 {
        fill: #e74011;
      }
    </style>
  </defs>
  <g id="Camada_1-2" data-name="Camada 1">
    <g>
      <path class="cls-2" d="M18.5,24H5.5c-3.1,0-5.5-2.5-5.5-5.5V5.5C0,2.4,2.5,0,5.5,0h13c3.1,0,5.5,2.5,5.5,5.5v12.9c0,3.1-2.4,5.6-5.5,5.6Z"/>
      <g>
        <path class="cls-1" d="M12,13h-3.1c-1.4,0-2.6,1.2-2.6,2.6v1c0,.3.2.5.5.5s.5-.2.5-.5v-1c0-.9.7-1.5,1.5-1.5h3.1c.9,0,1.5.7,1.5,1.5v1c0,.3.2.5.5.5s.5-.2.5-.5v-1c.2-1.4-.9-2.6-2.4-2.6Z"/>
        <path class="cls-1" d="M10.5,12c1.4,0,2.6-1.2,2.6-2.6s-1.2-2.6-2.6-2.6-2.6,1.2-2.6,2.6,1.2,2.6,2.6,2.6ZM10.5,7.9c.9,0,1.5.7,1.5,1.5,0,.9-.7,1.5-1.5,1.5-.9,0-1.5-.7-1.5-1.5-.1-.8.6-1.5,1.5-1.5Z"/>
        <path class="cls-1" d="M15.8,13.1c-.3-.1-.6.1-.6.4-.1.3.1.6.4.6.7.2,1.2.8,1.2,1.5v1c0,.3.2.5.5.5s.5-.2.5-.5v-1c-.1-1.2-.9-2.2-2-2.5Z"/>
        <path class="cls-1" d="M14,10.9c-.3.1-.4.4-.4.6.1.2.3.4.5.4h.1c.9-.2,1.6-.9,1.9-1.9.4-1.4-.5-2.8-1.9-3.1-.3-.1-.6.1-.6.4-.1.3.1.6.4.6.8.2,1.3,1.1,1.1,1.9-.2.6-.6,1-1.1,1.1Z"/>
      </g>
    </g>
  </g>
</svg>