<?xml version="1.0" encoding="UTF-8"?>
<svg id="Camada_2" data-name="Camada 2" xmlns="http://www.w3.org/2000/svg" viewBox="0 0 24 24">
  <defs>
    <style>
      .cls-1 {
        fill: #fff;
      }

      .cls-1, .cls-2 {
        stroke-width: 0px;
      }

      .cls-2 {
        fill: #e74011;
      }
    </style>
  </defs>
  <g id="Camada_1-2" data-name="Camada 1">
    <g>
      <path class="cls-2" d="M18.5,24H5.5c-3.1,0-5.5-2.5-5.5-5.5V5.5C0,2.5,2.5,0,5.5,0h13c3.1,0,5.5,2.5,5.5,5.5v12.9c0,3.1-2.5,5.6-5.5,5.6Z"/>
      <path class="cls-1" d="M15.2,17.5c-.1,0-.2,0-.2-.1l-3-1.6-3,1.6c-.2.1-.4.1-.6,0-.2-.1-.2-.3-.2-.5l.6-3.3-2.4-2.4c-.1-.1-.2-.3-.1-.5.1-.2.2-.3.4-.4l3.3-.5,1.5-3c.2-.4.8-.4.9,0l1.5,3,3.3.5c.2,0,.4.2.4.4.1.2,0,.4-.1.5l-2.4,2.4.6,3.3c0,.2,0,.4-.2.5,0,0-.1.1-.3.1ZM7.9,11.2l1.9,1.8c.1.1.2.3.2.5l-.5,2.5,2.3-1.2c.2-.1.3-.1.5,0l2.3,1.2-.4-2.6c0-.2,0-.3.2-.5l1.9-1.8-2.7-.3c-.2,0-.3-.1-.4-.3l-1.1-2.3-1.1,2.3c-.1.2-.2.3-.4.3l-2.7.4Z"/>
    </g>
  </g>
</svg>