<?xml version="1.0" encoding="UTF-8"?>
<svg id="Camada_2" data-name="Camada 2" xmlns="http://www.w3.org/2000/svg" viewBox="0 0 24 24">
  <defs>
    <style>
      .cls-1 {
        fill: #fff;
      }

      .cls-1, .cls-2 {
        stroke-width: 0px;
      }

      .cls-2 {
        fill: #e74011;
      }
    </style>
  </defs>
  <g id="Camada_1-2" data-name="Camada 1">
    <g>
      <path class="cls-2" d="M18.5,24H5.5c-3.1,0-5.5-2.5-5.5-5.5V5.5C0,2.4,2.5,0,5.5,0h13c3.1,0,5.5,2.5,5.5,5.5v12.9c0,3.1-2.5,5.6-5.5,5.6Z"/>
      <path class="cls-1" d="M17.3,10.3h0v-.3h0l-1.9-2.9c-.1-.1-.2-.2-.4-.2h-5.8c-.2,0-.3.1-.4.2l-1.9,2.9h0v.2h0v.2h0v.1l4.8,6.3h0l.1.1h.4l.1-.1h0l4.8-6.3v-.1h0q.2,0,.2-.1ZM9.7,10.8l1,3.4-2.6-3.4s1.6,0,1.6,0ZM12.2,7.9l1,1.9h-2.3l1-1.9h.3ZM13.2,10.8l-1.3,4.1-1.3-4.1s2.6,0,2.6,0ZM14.3,10.8h1.6l-2.6,3.4,1-3.4ZM15.9,9.8h-1.7l-1-1.9h1.4l1.3,1.9ZM9.3,7.9h1.4l-1,1.9h-1.7l1.3-1.9Z"/>
    </g>
  </g>
</svg>